<?xml version="1.0" encoding="UTF-8" standalone="no"?>
<!-- Created with Inkscape (http://www.inkscape.org/) -->

<svg
   id="svg1306"
   sodipodi:docname="raincloud.svg"
   viewBox="0 0 600 600"
   sodipodi:version="0.32"
   inkscape:output_extension="org.inkscape.output.svg.inkscape"
   inkscape:version="1.2.1 (9c6d41e410, 2022-07-14)"
   version="1.1"
   width="600"
   height="600"
   xmlns:inkscape="http://www.inkscape.org/namespaces/inkscape"
   xmlns:sodipodi="http://sodipodi.sourceforge.net/DTD/sodipodi-0.dtd"
   xmlns:xlink="http://www.w3.org/1999/xlink"
   xmlns="http://www.w3.org/2000/svg"
   xmlns:svg="http://www.w3.org/2000/svg"
   xmlns:rdf="http://www.w3.org/1999/02/22-rdf-syntax-ns#"
   xmlns:cc="http://creativecommons.org/ns#"
   xmlns:dc="http://purl.org/dc/elements/1.1/">
  <defs
     id="defs1308">
    <linearGradient
       id="linearGradient12237"
       y2="-381.29999"
       xlink:href="#linearGradient5358"
       gradientUnits="userSpaceOnUse"
       x2="27.4"
       gradientTransform="matrix(-0.053586,0.10285,-0.092814,-0.05938,198.91,-255.69)"
       y1="-359.82001"
       x1="6.8943"
       inkscape:collect="always" />
    <radialGradient
       id="radialGradient12235"
       xlink:href="#linearGradient5358"
       gradientUnits="userSpaceOnUse"
       cy="-382.95999"
       cx="21.92"
       gradientTransform="matrix(0.070652,0.041548,-0.062015,0.10941,207.48,-189.82)"
       r="21.743999"
       inkscape:collect="always" />
    <linearGradient
       id="linearGradient13542"
       y2="-436.82999"
       xlink:href="#linearGradient5358"
       gradientUnits="userSpaceOnUse"
       x2="288.89999"
       y1="-441.23001"
       x1="284.79999"
       inkscape:collect="always" />
    <linearGradient
       id="linearGradient13540"
       y2="-436.70999"
       xlink:href="#linearGradient5358"
       gradientUnits="userSpaceOnUse"
       x2="289.76999"
       y1="-439.48001"
       x1="286.67001"
       inkscape:collect="always" />
    <linearGradient
       id="linearGradient13538"
       y2="-431.92001"
       xlink:href="#linearGradient5358"
       gradientUnits="userSpaceOnUse"
       x2="279.98001"
       gradientTransform="translate(-35,207)"
       y1="-437.10999"
       x1="275.94"
       inkscape:collect="always" />
    <linearGradient
       id="linearGradient13536"
       y2="-436.44"
       xlink:href="#linearGradient5358"
       gradientUnits="userSpaceOnUse"
       x2="289.39001"
       y1="-439.94"
       x1="285.94"
       inkscape:collect="always" />
    <linearGradient
       id="linearGradient13533"
       y2="-436.14001"
       xlink:href="#linearGradient5358"
       gradientUnits="userSpaceOnUse"
       x2="289.85001"
       y1="-441.29001"
       x1="286.51001"
       inkscape:collect="always" />
    <linearGradient
       id="linearGradient13531"
       y2="-436.32001"
       xlink:href="#linearGradient5358"
       gradientUnits="userSpaceOnUse"
       x2="289.67999"
       y1="-439.75"
       x1="287.51999"
       inkscape:collect="always" />
    <linearGradient
       id="linearGradient13529"
       y2="-431.97"
       xlink:href="#linearGradient5358"
       gradientUnits="userSpaceOnUse"
       x2="285.03"
       gradientTransform="translate(-34,207)"
       y1="-441.04999"
       x1="271.01999"
       inkscape:collect="always" />
    <linearGradient
       id="linearGradient13513"
       y2="-382.64999"
       gradientUnits="userSpaceOnUse"
       x2="245.64999"
       y1="-388.47"
       x1="238"
       inkscape:collect="always">
      <stop
         id="stop8400"
         style="stop-color:#ffffff"
         offset="0" />
      <stop
         id="stop8402"
         style="stop-color:#ffffff;stop-opacity:0"
         offset="1" />
    </linearGradient>
    <linearGradient
       id="linearGradient13511"
       y2="-386.95999"
       gradientUnits="userSpaceOnUse"
       x2="235.25999"
       y1="-390.44"
       x1="230.88"
       inkscape:collect="always">
      <stop
         id="stop8317"
         style="stop-color:#ffffff"
         offset="0" />
      <stop
         id="stop8319"
         style="stop-color:#ffffff;stop-opacity:0"
         offset="1" />
    </linearGradient>
    <linearGradient
       id="linearGradient13509"
       y2="-385.35001"
       gradientUnits="userSpaceOnUse"
       x2="252.7"
       y1="-391.31"
       x1="246.74001"
       inkscape:collect="always">
      <stop
         id="stop8383"
         style="stop-color:#ffffff"
         offset="0" />
      <stop
         id="stop8385"
         style="stop-color:#ffffff;stop-opacity:0"
         offset="1" />
    </linearGradient>
    <linearGradient
       id="linearGradient13507"
       y2="-388.54999"
       gradientUnits="userSpaceOnUse"
       x2="245.83"
       y1="-393.41"
       x1="240.07001"
       inkscape:collect="always">
      <stop
         id="stop8333"
         style="stop-color:#ffffff"
         offset="0" />
      <stop
         id="stop8335"
         style="stop-color:#ffffff;stop-opacity:0"
         offset="1" />
    </linearGradient>
    <linearGradient
       id="linearGradient13505"
       y2="-379.26999"
       gradientUnits="userSpaceOnUse"
       x2="266.35999"
       gradientTransform="translate(69,155)"
       y1="-392.31"
       x1="228.5"
       inkscape:collect="always">
      <stop
         id="stop8304"
         style="stop-color:#ffffff"
         offset="0" />
      <stop
         id="stop8306"
         style="stop-color:#ffffff;stop-opacity:0"
         offset="1" />
    </linearGradient>
    <linearGradient
       id="linearGradient5358"
       inkscape:collect="always">
      <stop
         id="stop5360"
         style="stop-color:#ffffff"
         offset="0" />
      <stop
         id="stop5362"
         style="stop-color:#ffffff;stop-opacity:0"
         offset="1" />
    </linearGradient>
    <radialGradient
       inkscape:collect="always"
       xlink:href="#linearGradient5358"
       id="radialGradient435"
       gradientUnits="userSpaceOnUse"
       gradientTransform="matrix(0.070652,0.041548,-0.062015,0.10941,207.48,-189.82)"
       cx="21.92"
       cy="-382.95999"
       r="21.743999" />
    <linearGradient
       inkscape:collect="always"
       xlink:href="#linearGradient5358"
       id="linearGradient437"
       gradientUnits="userSpaceOnUse"
       gradientTransform="matrix(-0.053586,0.10285,-0.092814,-0.05938,198.91,-255.69)"
       x1="6.8943"
       y1="-359.82001"
       x2="27.4"
       y2="-381.29999" />
    <linearGradient
       inkscape:collect="always"
       xlink:href="#linearGradient5358"
       id="linearGradient439"
       gradientUnits="userSpaceOnUse"
       gradientTransform="translate(-34,207)"
       x1="271.01999"
       y1="-441.04999"
       x2="285.03"
       y2="-431.97" />
    <linearGradient
       inkscape:collect="always"
       xlink:href="#linearGradient5358"
       id="linearGradient441"
       gradientUnits="userSpaceOnUse"
       x1="287.51999"
       y1="-439.75"
       x2="289.67999"
       y2="-436.32001" />
    <linearGradient
       inkscape:collect="always"
       xlink:href="#linearGradient5358"
       id="linearGradient443"
       gradientUnits="userSpaceOnUse"
       x1="286.51001"
       y1="-441.29001"
       x2="289.85001"
       y2="-436.14001" />
    <linearGradient
       inkscape:collect="always"
       xlink:href="#linearGradient5358"
       id="linearGradient445"
       gradientUnits="userSpaceOnUse"
       x1="285.94"
       y1="-439.94"
       x2="289.39001"
       y2="-436.44" />
    <linearGradient
       inkscape:collect="always"
       xlink:href="#linearGradient5358"
       id="linearGradient447"
       gradientUnits="userSpaceOnUse"
       gradientTransform="translate(-35,207)"
       x1="275.94"
       y1="-437.10999"
       x2="279.98001"
       y2="-431.92001" />
    <linearGradient
       inkscape:collect="always"
       xlink:href="#linearGradient5358"
       id="linearGradient449"
       gradientUnits="userSpaceOnUse"
       x1="286.67001"
       y1="-439.48001"
       x2="289.76999"
       y2="-436.70999" />
    <linearGradient
       inkscape:collect="always"
       xlink:href="#linearGradient5358"
       id="linearGradient451"
       gradientUnits="userSpaceOnUse"
       x1="284.79999"
       y1="-441.23001"
       x2="288.89999"
       y2="-436.82999" />
    <radialGradient
       inkscape:collect="always"
       xlink:href="#linearGradient5358"
       id="radialGradient453"
       gradientUnits="userSpaceOnUse"
       gradientTransform="matrix(0.070652,0.041548,-0.062015,0.10941,207.48,-189.82)"
       cx="21.92"
       cy="-382.95999"
       r="21.743999" />
    <linearGradient
       inkscape:collect="always"
       xlink:href="#linearGradient5358"
       id="linearGradient455"
       gradientUnits="userSpaceOnUse"
       gradientTransform="matrix(-0.053586,0.10285,-0.092814,-0.05938,198.91,-255.69)"
       x1="6.8943"
       y1="-359.82001"
       x2="27.4"
       y2="-381.29999" />
    <radialGradient
       inkscape:collect="always"
       xlink:href="#linearGradient5358"
       id="radialGradient457"
       gradientUnits="userSpaceOnUse"
       gradientTransform="matrix(0.070652,0.041548,-0.062015,0.10941,207.48,-189.82)"
       cx="21.92"
       cy="-382.95999"
       r="21.743999" />
    <linearGradient
       inkscape:collect="always"
       xlink:href="#linearGradient5358"
       id="linearGradient459"
       gradientUnits="userSpaceOnUse"
       gradientTransform="matrix(-0.053586,0.10285,-0.092814,-0.05938,198.91,-255.69)"
       x1="6.8943"
       y1="-359.82001"
       x2="27.4"
       y2="-381.29999" />
    <radialGradient
       inkscape:collect="always"
       xlink:href="#linearGradient5358"
       id="radialGradient461"
       gradientUnits="userSpaceOnUse"
       gradientTransform="matrix(0.070652,0.041548,-0.062015,0.10941,207.48,-189.82)"
       cx="21.92"
       cy="-382.95999"
       r="21.743999" />
    <linearGradient
       inkscape:collect="always"
       xlink:href="#linearGradient5358"
       id="linearGradient463"
       gradientUnits="userSpaceOnUse"
       gradientTransform="matrix(-0.053586,0.10285,-0.092814,-0.05938,198.91,-255.69)"
       x1="6.8943"
       y1="-359.82001"
       x2="27.4"
       y2="-381.29999" />
    <radialGradient
       inkscape:collect="always"
       xlink:href="#linearGradient5358"
       id="radialGradient465"
       gradientUnits="userSpaceOnUse"
       gradientTransform="matrix(0.070652,0.041548,-0.062015,0.10941,207.48,-189.82)"
       cx="21.92"
       cy="-382.95999"
       r="21.743999" />
    <linearGradient
       inkscape:collect="always"
       xlink:href="#linearGradient5358"
       id="linearGradient467"
       gradientUnits="userSpaceOnUse"
       gradientTransform="matrix(-0.053586,0.10285,-0.092814,-0.05938,198.91,-255.69)"
       x1="6.8943"
       y1="-359.82001"
       x2="27.4"
       y2="-381.29999" />
  </defs>
  <sodipodi:namedview
     id="base"
     bordercolor="#666666"
     inkscape:pageshadow="2"
     inkscape:window-y="-9"
     pagecolor="#ffffff"
     inkscape:window-height="991"
     inkscape:grid-bbox="true"
     inkscape:zoom="1"
     inkscape:window-x="-9"
     showgrid="true"
     borderopacity="1.0"
     inkscape:current-layer="layer1"
     inkscape:cx="26"
     inkscape:cy="311.5"
     inkscape:showpageshadow="false"
     inkscape:window-width="1920"
     inkscape:pageopacity="0.0"
     inkscape:document-units="px"
     inkscape:pagecheckerboard="0"
     inkscape:deskcolor="#d1d1d1"
     inkscape:window-maximized="1" />
  <g
     id="layer1"
     inkscape:label="Layer 1"
     inkscape:groupmode="layer">
    <g
       id="g12227"
       transform="matrix(12.5,0,0,12.5,-2539.375,3404.9053)">
      <path
         id="path12229"
         sodipodi:nodetypes="cccc"
         style="fill:#729fcf;stroke:#204a87;stroke-width:1.0746;stroke-miterlimit:2"
         d="m 231.63,-228.77 c -1.04,-0.6 -1.4,-1.92 -0.8,-2.95 1.33,-2.08 3.11,-1.55 4.01,-3.74 1.26,1.33 0.8,8.25 -3.21,6.69 z" />
      <path
         id="path12231"
         sodipodi:nodetypes="csscc"
         style="opacity:0.46111;fill:url(#radialGradient435)"
         d="m 234.31,-229.9 c -0.49,0.86 -1.57,1.16 -2.42,0.66 -0.85,-0.5 -1.14,-1.61 -0.65,-2.47 0.49,-0.86 2.6,-0.45 3.34,-2.29 0.85,0.5 0.22,3.23 -0.27,4.1 z" />
      <path
         id="path12233"
         sodipodi:nodetypes="ccc"
         style="fill:url(#linearGradient437)"
         d="m 233.02,-229 c -4.61,-1.07 0.24,-4.72 0.98,-3.92 -3.58,1.37 -0.98,3.92 -0.98,3.92 z" />
    </g>
    <g
       id="g12627"
       transform="matrix(12.496,0,0,12.5,-3588.125,3079.7803)">
      <g
         id="g12533">
        <path
           id="path8887"
           style="fill:#555753"
           d="m 311.5,-243 c -2.77,0 -5.11,1.57 -6.41,3.81 -0.94,-0.47 -1.96,-0.81 -3.09,-0.81 -3.86,0 -7,3.14 -7,7 0,3.86 3.14,7 7,7 2.42,0 4.43,-1.32 5.69,-3.19 1.13,0.69 2.39,1.19 3.81,1.19 0.91,0 1.75,-0.23 2.56,-0.53 0.51,0.87 1.18,1.58 2,2.16 0,0.13 -0.06,0.24 -0.06,0.37 0,3.86 3.14,7 7,7 3.86,0 7,-3.14 7,-7 0,-2.37 -1.26,-4.36 -3.06,-5.62 0,-0.14 0.06,-0.25 0.06,-0.38 0,-3.86 -3.14,-7 -7,-7 -0.62,0 -1.18,0.22 -1.75,0.38 -1.19,-2.56 -3.74,-4.38 -6.75,-4.38 z" />
        <path
           id="path8889"
           style="fill:url(#linearGradient13505)"
           d="m 311.5,-242 c -2.78,0 -5.13,1.76 -6.06,4.22 -0.99,-0.71 -2.13,-1.22 -3.44,-1.22 -3.31,0 -6,2.69 -6,6 0,3.31 2.69,6 6,6 2.43,0 4.49,-1.46 5.44,-3.53 1.12,0.92 2.5,1.53 4.06,1.53 1.07,0 2.04,-0.32 2.94,-0.78 0.4,1 1.1,1.79 1.94,2.44 -0.19,0.59 -0.38,1.19 -0.38,1.84 0,3.59 2.91,6.5 6.5,6.5 3.59,0 6.5,-2.91 6.5,-6.5 0,-2.36 -1.33,-4.33 -3.22,-5.47 0.06,-0.35 0.22,-0.66 0.22,-1.03 0,-3.31 -2.69,-6 -6,-6 -0.85,0 -1.67,0.18 -2.41,0.5 -0.85,-2.59 -3.21,-4.5 -6.09,-4.5 z" />
        <circle
           id="path8891"
           style="fill:#888a85"
           transform="matrix(0.96445,0,0,0.96445,89.289,144.53)"
           cx="241.80843"
           cy="-383.6666"
           r="6.7396116" />
        <g
           id="g12520">
          <circle
             id="path8895"
             style="fill:#888a85"
             transform="matrix(0.88263,0,0,0.88263,96.181,108.11)"
             cx="243.95184"
             cy="-389.30136"
             r="6.2313786" />
          <circle
             id="path8897"
             style="opacity:0.49444;fill:url(#linearGradient13507)"
             transform="matrix(0.88263,0,0,0.88263,96.181,108.11)"
             cx="243.95184"
             cy="-389.30136"
             r="6.2313786" />
        </g>
        <g
           id="g12516">
          <circle
             id="path8901"
             style="fill:#888a85"
             transform="matrix(0.91173,0,0,0.91173,90.454,120.23)"
             cx="251.22179"
             cy="-385.7879"
             r="6.0325046" />
          <circle
             id="path8903"
             style="opacity:0.49444;fill:url(#linearGradient13509)"
             transform="matrix(0.91173,0,0,0.91173,90.454,120.23)"
             cx="251.22179"
             cy="-385.7879"
             r="6.0325046" />
        </g>
        <g
           id="g12524">
          <circle
             id="path8907"
             style="fill:#888a85"
             transform="matrix(1.1428,0,0,1.1428,35.232,210.28)"
             cx="233.43362"
             cy="-387.88715"
             r="4.3752232" />
          <circle
             id="path8909"
             style="opacity:0.49444;fill:url(#linearGradient13511)"
             transform="matrix(1.1428,0,0,1.1428,35.232,210.28)"
             cx="233.43362"
             cy="-387.88715"
             r="4.3752232" />
        </g>
        <g
           id="g12529">
          <circle
             id="path8913"
             style="fill:#888a85"
             transform="matrix(1.0386,0,0,1.0386,59.849,169.49)"
             cx="241.80843"
             cy="-383.6666"
             r="6.7396116" />
          <circle
             id="path8915"
             style="opacity:0.49444;fill:url(#linearGradient13513)"
             transform="matrix(1.0386,0,0,1.0386,59.849,169.49)"
             cx="241.80843"
             cy="-383.6666"
             r="6.7396116" />
        </g>
      </g>
      <g
         id="g12578"
         transform="translate(72,7.9999)">
        <path
           id="path12580"
           sodipodi:nodetypes="ccsscsssscsscc"
           style="fill:#888a85;stroke:#555753;stroke-width:1.0002;stroke-miterlimit:2"
           d="m 246.5,-238.5 c -2.27,0 -4.11,1.55 -4.72,3.63 -0.69,-0.37 -1.44,-0.63 -2.28,-0.63 -2.76,0 -5,2.24 -5,5 0,0.58 0.16,1.11 0.34,1.63 -1.37,0.77 -2.34,2.18 -2.34,3.87 0,2.48 2.02,4.5 4.5,4.5 h 19 c 2.48,0 4.5,-2.02 4.5,-4.5 0,-1.69 -0.97,-3.1 -2.34,-3.87 0.18,-0.52 0.34,-1.05 0.34,-1.63 0,-2.76 -2.24,-5 -5,-5 -0.84,0 -1.59,0.26 -2.28,0.63 -0.61,-2.08 -2.45,-3.63 -4.72,-3.63 z" />
        <path
           id="path12582"
           sodipodi:nodetypes="ccsscsssscsscc"
           style="fill:url(#linearGradient439)"
           d="m 246.5,-238 c -2.19,0 -3.72,1.34 -4.4,3.84 -0.66,-0.34 -1.54,-0.83 -2.35,-0.83 -2.72,0 -4.76,1.94 -4.76,4.55 0,0.54 0.27,1.33 0.45,1.82 -1.33,0.73 -2.44,1.89 -2.44,3.37 0,2.35 1.55,4.25 4.34,4.25 h 18.32 c 2.77,0 4.34,-1.9 4.34,-4.25 0,-1.59 -1.11,-2.67 -2.44,-3.39 0.18,-0.49 0.47,-1.26 0.47,-1.8 0,-2.61 -2.12,-4.57 -4.78,-4.57 -0.81,0 -1.64,0.49 -2.31,0.83 -0.65,-2.42 -2.25,-3.82 -4.44,-3.82 z" />
        <circle
           id="path12584"
           style="fill:#888a85"
           transform="matrix(1.0566,0,0,1.0566,-58.198,228.86)"
           cx="288.375"
           cy="-437.59375"
           r="3.3125" />
        <circle
           id="path12586"
           style="opacity:0.47778;fill:url(#linearGradient441)"
           transform="matrix(1.0566,0,0,1.0566,-58.198,228.86)"
           cx="288.375"
           cy="-437.59375"
           r="3.3125" />
        <rect
           id="rect12588"
           style="fill:#888a85"
           height="9"
           width="20"
           y="-231"
           x="237" />
        <circle
           id="path12591"
           style="fill:#888a85"
           transform="matrix(0.90566,0,0,0.90566,-24.17,171.31)"
           cx="288.375"
           cy="-437.59375"
           r="3.3125" />
        <circle
           id="path12593"
           style="fill:#888a85"
           transform="matrix(1.0566,0,0,1.0566,-51.198,231.86)"
           cx="288.375"
           cy="-437.59375"
           r="3.3125" />
        <circle
           id="path12595"
           style="opacity:0.47778;fill:url(#linearGradient443)"
           transform="matrix(1.0566,0,0,1.0566,-51.198,231.86)"
           cx="288.375"
           cy="-437.59375"
           r="3.3125" />
        <circle
           id="path12597"
           style="fill:#888a85"
           transform="matrix(1.0566,0,0,1.0566,-65.198,231.86)"
           cx="288.375"
           cy="-437.59375"
           r="3.3125" />
        <circle
           id="path12599"
           style="opacity:0.47778;fill:url(#linearGradient445)"
           transform="matrix(1.0566,0,0,1.0566,-65.198,231.86)"
           cx="288.375"
           cy="-437.59375"
           r="3.3125" />
        <path
           id="path12601"
           style="fill:#888a85"
           d="m 245.47,-233.97 c -3.58,0 -6.47,2.92 -6.47,6.5 0,2.37 1.35,4.34 3.25,5.47 h 6.47 c 1.9,-1.13 3.25,-3.13 3.25,-5.5 0,-3.58 -2.92,-6.47 -6.5,-6.47 z" />
        <path
           id="path12603"
           style="opacity:0.47778;fill:url(#linearGradient447)"
           d="m 245.5,-234 c -3.59,0 -6.5,2.91 -6.5,6.5 0,2.38 1.34,4.37 3.25,5.5 h 6.5 c 1.91,-1.13 3.25,-3.12 3.25,-5.5 0,-3.59 -2.91,-6.5 -6.5,-6.5 z" />
        <circle
           id="path12605"
           style="opacity:0.47778;fill:url(#linearGradient449)"
           transform="matrix(0.90566,0,0,0.90566,-24.17,171.31)"
           cx="288.375"
           cy="-437.59375"
           r="3.3125" />
        <path
           id="path12607"
           sodipodi:nodetypes="ccss"
           style="fill:#555753;fill-rule:evenodd"
           d="m 258.96,-230.33 c -0.01,2.68 -3.27,3.71 -3.27,3.71 0,0 2.35,-1.63 2.33,-3.7 0,0 0.94,-0.01 0.94,-0.01 z" />
        <circle
           id="path12609"
           style="fill:#888a85"
           transform="matrix(1.2075,0,0,1.2075,-98.227,302.42)"
           cx="288.375"
           cy="-437.59375"
           r="3.3125" />
        <circle
           id="path12611"
           style="opacity:0.47778;fill:url(#linearGradient451)"
           transform="matrix(1.2075,0,0,1.2075,-98.227,302.42)"
           cx="288.375"
           cy="-437.59375"
           r="3.3125" />
      </g>
      <g
         id="g12393"
         transform="translate(56.986,3.9839)">
        <path
           id="path12329"
           sodipodi:nodetypes="ccsscsssscsscc"
           style="fill:#888a85;stroke:#555753;stroke-width:1.0002;stroke-miterlimit:2"
           d="m 246.5,-238.5 c -2.27,0 -4.11,1.55 -4.72,3.63 -0.69,-0.37 -1.44,-0.63 -2.28,-0.63 -2.76,0 -5,2.24 -5,5 0,0.58 0.16,1.11 0.34,1.63 -1.37,0.77 -2.34,2.18 -2.34,3.87 0,2.48 2.02,4.5 4.5,4.5 h 19 c 2.48,0 4.5,-2.02 4.5,-4.5 0,-1.69 -0.97,-3.1 -2.34,-3.87 0.18,-0.52 0.34,-1.05 0.34,-1.63 0,-2.76 -2.24,-5 -5,-5 -0.84,0 -1.59,0.26 -2.28,0.63 -0.61,-2.08 -2.45,-3.63 -4.72,-3.63 z" />
        <path
           id="path12331"
           sodipodi:nodetypes="ccsscsssscsscc"
           style="fill:url(#linearGradient13529)"
           d="m 246.5,-238 c -2.19,0 -3.72,1.34 -4.4,3.84 -0.66,-0.34 -1.54,-0.83 -2.35,-0.83 -2.72,0 -4.76,1.94 -4.76,4.55 0,0.54 0.27,1.33 0.45,1.82 -1.33,0.73 -2.44,1.89 -2.44,3.37 0,2.35 1.55,4.25 4.34,4.25 h 18.32 c 2.77,0 4.34,-1.9 4.34,-4.25 0,-1.59 -1.11,-2.67 -2.44,-3.39 0.18,-0.49 0.47,-1.26 0.47,-1.8 0,-2.61 -2.12,-4.57 -4.78,-4.57 -0.81,0 -1.64,0.49 -2.31,0.83 -0.65,-2.42 -2.25,-3.82 -4.44,-3.82 z" />
        <circle
           id="path12333"
           style="fill:#888a85"
           transform="matrix(1.0566,0,0,1.0566,-58.198,228.86)"
           cx="288.375"
           cy="-437.59375"
           r="3.3125" />
        <circle
           id="path12335"
           style="opacity:0.47778;fill:url(#linearGradient13531)"
           transform="matrix(1.0566,0,0,1.0566,-58.198,228.86)"
           cx="288.375"
           cy="-437.59375"
           r="3.3125" />
        <rect
           id="rect12337"
           style="fill:#888a85"
           height="9"
           width="20"
           y="-231"
           x="237" />
        <circle
           id="path12339"
           style="fill:#888a85"
           transform="matrix(0.90566,0,0,0.90566,-24.17,171.31)"
           cx="288.375"
           cy="-437.59375"
           r="3.3125" />
        <circle
           id="path12341"
           style="fill:#888a85"
           transform="matrix(1.0566,0,0,1.0566,-51.198,231.86)"
           cx="288.375"
           cy="-437.59375"
           r="3.3125" />
        <circle
           id="path12343"
           style="opacity:0.47778;fill:url(#linearGradient13533)"
           transform="matrix(1.0566,0,0,1.0566,-51.198,231.86)"
           cx="288.375"
           cy="-437.59375"
           r="3.3125" />
        <circle
           id="path12347"
           style="fill:#888a85"
           transform="matrix(1.0566,0,0,1.0566,-65.198,231.86)"
           cx="288.375"
           cy="-437.59375"
           r="3.3125" />
        <circle
           id="path12349"
           style="opacity:0.47778;fill:url(#linearGradient13536)"
           transform="matrix(1.0566,0,0,1.0566,-65.198,231.86)"
           cx="288.375"
           cy="-437.59375"
           r="3.3125" />
        <path
           id="path12351"
           style="fill:#888a85"
           d="m 245.47,-233.97 c -3.58,0 -6.47,2.92 -6.47,6.5 0,2.37 1.35,4.34 3.25,5.47 h 6.47 c 1.9,-1.13 3.25,-3.13 3.25,-5.5 0,-3.58 -2.92,-6.47 -6.5,-6.47 z" />
        <path
           id="path12353"
           style="opacity:0.47778;fill:url(#linearGradient13538)"
           d="m 245.5,-234 c -3.59,0 -6.5,2.91 -6.5,6.5 0,2.38 1.34,4.37 3.25,5.5 h 6.5 c 1.91,-1.13 3.25,-3.12 3.25,-5.5 0,-3.59 -2.91,-6.5 -6.5,-6.5 z" />
        <circle
           id="path12355"
           style="opacity:0.47778;fill:url(#linearGradient13540)"
           transform="matrix(0.90566,0,0,0.90566,-24.17,171.31)"
           cx="288.375"
           cy="-437.59375"
           r="3.3125" />
        <path
           id="path12357"
           sodipodi:nodetypes="ccss"
           style="fill:#555753;fill-rule:evenodd"
           d="m 258.96,-230.33 c -0.01,2.68 -3.27,3.71 -3.27,3.71 0,0 2.35,-1.63 2.33,-3.7 0,0 0.94,-0.01 0.94,-0.01 z" />
        <circle
           id="path12359"
           style="fill:#888a85"
           transform="matrix(1.2075,0,0,1.2075,-98.227,302.42)"
           cx="288.375"
           cy="-437.59375"
           r="3.3125" />
        <circle
           id="path12361"
           style="opacity:0.47778;fill:url(#linearGradient13542)"
           transform="matrix(1.2075,0,0,1.2075,-98.227,302.42)"
           cx="288.375"
           cy="-437.59375"
           r="3.3125" />
      </g>
    </g>
    <g
       id="g12191"
       transform="matrix(12.5,0,0,12.5,-2789.375,3279.9053)">
      <path
         id="path12193"
         sodipodi:nodetypes="cccc"
         style="fill:#729fcf;stroke:#204a87;stroke-width:1.0746;stroke-miterlimit:2"
         d="m 231.63,-228.77 c -1.04,-0.6 -1.4,-1.92 -0.8,-2.95 1.33,-2.08 3.11,-1.55 4.01,-3.74 1.26,1.33 0.8,8.25 -3.21,6.69 z" />
      <path
         id="path12195"
         sodipodi:nodetypes="csscc"
         style="opacity:0.46111;fill:url(#radialGradient453)"
         d="m 234.31,-229.9 c -0.49,0.86 -1.57,1.16 -2.42,0.66 -0.85,-0.5 -1.14,-1.61 -0.65,-2.47 0.49,-0.86 2.6,-0.45 3.34,-2.29 0.85,0.5 0.22,3.23 -0.27,4.1 z" />
      <path
         id="path12197"
         sodipodi:nodetypes="ccc"
         style="fill:url(#linearGradient455)"
         d="m 233.02,-229 c -4.61,-1.07 0.24,-4.72 0.98,-3.92 -3.58,1.37 -0.98,3.92 -0.98,3.92 z" />
    </g>
    <g
       id="g12239"
       transform="matrix(12.5,0,0,12.5,-2427,3367.4053)">
      <path
         id="path12241"
         sodipodi:nodetypes="cccc"
         style="fill:#729fcf;stroke:#204a87;stroke-width:1.0746;stroke-miterlimit:2"
         d="m 231.63,-228.77 c -1.04,-0.6 -1.4,-1.92 -0.8,-2.95 1.33,-2.08 3.11,-1.55 4.01,-3.74 1.26,1.33 0.8,8.25 -3.21,6.69 z" />
      <path
         id="path12243"
         sodipodi:nodetypes="csscc"
         style="opacity:0.46111;fill:url(#radialGradient457)"
         d="m 234.31,-229.9 c -0.49,0.86 -1.57,1.16 -2.42,0.66 -0.85,-0.5 -1.14,-1.61 -0.65,-2.47 0.49,-0.86 2.6,-0.45 3.34,-2.29 0.85,0.5 0.22,3.23 -0.27,4.1 z" />
      <path
         id="path12245"
         sodipodi:nodetypes="ccc"
         style="fill:url(#linearGradient459)"
         d="m 233.02,-229 c -4.61,-1.07 0.24,-4.72 0.98,-3.92 -3.58,1.37 -0.98,3.92 -0.98,3.92 z" />
    </g>
    <g
       id="g12186"
       transform="matrix(12.5,0,0,12.5,-2814.5,3404.9053)">
      <path
         id="path6059"
         sodipodi:nodetypes="cccc"
         style="fill:#729fcf;stroke:#204a87;stroke-width:1.0746;stroke-miterlimit:2"
         d="m 231.63,-228.77 c -1.04,-0.6 -1.4,-1.92 -0.8,-2.95 1.33,-2.08 3.11,-1.55 4.01,-3.74 1.26,1.33 0.8,8.25 -3.21,6.69 z" />
      <path
         id="path6061"
         sodipodi:nodetypes="csscc"
         style="opacity:0.46111;fill:url(#radialGradient461)"
         d="m 234.31,-229.9 c -0.49,0.86 -1.57,1.16 -2.42,0.66 -0.85,-0.5 -1.14,-1.61 -0.65,-2.47 0.49,-0.86 2.6,-0.45 3.34,-2.29 0.85,0.5 0.22,3.23 -0.27,4.1 z" />
      <path
         id="path6063"
         sodipodi:nodetypes="ccc"
         style="fill:url(#linearGradient463)"
         d="m 233.02,-229 c -4.61,-1.07 0.24,-4.72 0.98,-3.92 -3.58,1.37 -0.98,3.92 -0.98,3.92 z" />
    </g>
    <g
       id="g12203"
       transform="matrix(12.5,0,0,12.5,-2689.5,3342.4053)">
      <path
         id="path12205"
         sodipodi:nodetypes="cccc"
         style="fill:#729fcf;stroke:#204a87;stroke-width:1.0746;stroke-miterlimit:2"
         d="m 231.63,-228.77 c -1.04,-0.6 -1.4,-1.92 -0.8,-2.95 1.33,-2.08 3.11,-1.55 4.01,-3.74 1.26,1.33 0.8,8.25 -3.21,6.69 z" />
      <path
         id="path12207"
         sodipodi:nodetypes="csscc"
         style="opacity:0.46111;fill:url(#radialGradient465)"
         d="m 234.31,-229.9 c -0.49,0.86 -1.57,1.16 -2.42,0.66 -0.85,-0.5 -1.14,-1.61 -0.65,-2.47 0.49,-0.86 2.6,-0.45 3.34,-2.29 0.85,0.5 0.22,3.23 -0.27,4.1 z" />
      <path
         id="path12209"
         sodipodi:nodetypes="ccc"
         style="fill:url(#linearGradient467)"
         d="m 233.02,-229 c -4.61,-1.07 0.24,-4.72 0.98,-3.92 -3.58,1.37 -0.98,3.92 -0.98,3.92 z" />
    </g>
    <g
       id="g12215"
       transform="matrix(12.5,0,0,12.5,-2514.5,3279.9053)">
      <path
         id="path12217"
         sodipodi:nodetypes="cccc"
         style="fill:#729fcf;stroke:#204a87;stroke-width:1.0746;stroke-miterlimit:2"
         d="m 231.63,-228.77 c -1.04,-0.6 -1.4,-1.92 -0.8,-2.95 1.33,-2.08 3.11,-1.55 4.01,-3.74 1.26,1.33 0.8,8.25 -3.21,6.69 z" />
      <path
         id="path12219"
         sodipodi:nodetypes="csscc"
         style="opacity:0.46111;fill:url(#radialGradient12235)"
         d="m 234.31,-229.9 c -0.49,0.86 -1.57,1.16 -2.42,0.66 -0.85,-0.5 -1.14,-1.61 -0.65,-2.47 0.49,-0.86 2.6,-0.45 3.34,-2.29 0.85,0.5 0.22,3.23 -0.27,4.1 z" />
      <path
         id="path12221"
         sodipodi:nodetypes="ccc"
         style="fill:url(#linearGradient12237)"
         d="m 233.02,-229 c -4.61,-1.07 0.24,-4.72 0.98,-3.92 -3.58,1.37 -0.98,3.92 -0.98,3.92 z" />
    </g>
  </g>
  <metadata
     id="metadata107">
    <rdf:RDF>
      <cc:Work>
        <dc:format>image/svg+xml</dc:format>
        <dc:type
           rdf:resource="http://purl.org/dc/dcmitype/StillImage" />
        <cc:license
           rdf:resource="http://creativecommons.org/publicdomain/zero/1.0/" />
        <dc:publisher>
          <cc:Agent
             rdf:about="http://openclipart.org/">
            <dc:title>Openclipart</dc:title>
          </cc:Agent>
        </dc:publisher>
        <dc:date>2010-03-08T06:56:08</dc:date>
        <dc:description>Weather icon from Tango Project: http://tango.freedesktop.org/Tango_Desktop_Project
\n&lt;br&gt;&lt;br&gt;
\nTango Project icons are Public Domain.</dc:description>
        <dc:source>https://openclipart.org/detail/30151/tango-weather-showers-scattered-by-warszawianka</dc:source>
        <dc:creator>
          <cc:Agent>
            <dc:title>warszawianka</dc:title>
          </cc:Agent>
        </dc:creator>
        <dc:subject>
          <rdf:Bag>
            <rdf:li>cloud</rdf:li>
            <rdf:li>drop</rdf:li>
            <rdf:li>icon</rdf:li>
            <rdf:li>rain</rdf:li>
            <rdf:li>weather</rdf:li>
          </rdf:Bag>
        </dc:subject>
      </cc:Work>
      <cc:License
         rdf:about="http://creativecommons.org/publicdomain/zero/1.0/">
        <cc:permits
           rdf:resource="http://creativecommons.org/ns#Reproduction" />
        <cc:permits
           rdf:resource="http://creativecommons.org/ns#Distribution" />
        <cc:permits
           rdf:resource="http://creativecommons.org/ns#DerivativeWorks" />
      </cc:License>
    </rdf:RDF>
  </metadata>
</svg>
