<?xml version="1.0" encoding="UTF-8" standalone="no"?>
<!-- Created with Inkscape (http://www.inkscape.org/) -->

<svg
   xmlns:dc="http://purl.org/dc/elements/1.1/"
   xmlns:cc="http://creativecommons.org/ns#"
   xmlns:rdf="http://www.w3.org/1999/02/22-rdf-syntax-ns#"
   xmlns:svg="http://www.w3.org/2000/svg"
   xmlns="http://www.w3.org/2000/svg"
   xmlns:sodipodi="http://sodipodi.sourceforge.net/DTD/sodipodi-0.dtd"
   xmlns:inkscape="http://www.inkscape.org/namespaces/inkscape"
   id="svg2"
   sodipodi:docname="newnhamm-MultiColored-Sparkle.svg"
   viewBox="0 0 341.50414 326.63001"
   sodipodi:version="0.32"
   inkscape:output_extension="org.inkscape.output.svg.inkscape"
   inkscape:version="0.48.5 r10040"
   version="1.1"
   width="100%"
   height="100%">
  <defs
     id="defs30" />
  <sodipodi:namedview
     id="base"
     bordercolor="#666666"
     inkscape:pageshadow="2"
     guidetolerance="10"
     pagecolor="#ffffff"
     gridtolerance="10000"
     inkscape:window-height="1001"
     inkscape:zoom="1.2062368"
     objecttolerance="10"
     showgrid="false"
     borderopacity="1.0"
     inkscape:current-layer="layer1"
     inkscape:cx="199.1226"
     inkscape:cy="185.79687"
     inkscape:window-y="27"
     inkscape:window-x="0"
     inkscape:window-width="1677"
     inkscape:pageopacity="0.0"
     inkscape:document-units="px"
     fit-margin-top="0"
     fit-margin-left="0"
     fit-margin-right="0"
     fit-margin-bottom="0"
     inkscape:window-maximized="0" />
  <g
     id="layer1"
     inkscape:label="Layer 1"
     inkscape:groupmode="layer"
     transform="translate(-185.77587,-336.48)">
    <path
       id="path3172"
       sodipodi:nodetypes="ccccccccccccccccccc"
       style="fill:#ffff00"
       d="m 488.52,565.05 -129.2,-61.67 53.82,132.66 -59.34,-130.29 -44.04,136.22 38.29,-137.95 -86.09,55.86 82.8,-60.88 -141.8,-19.72 142.5,13.76 -95.94,-106.26 100.31,102.14 -5.2,-143.07 11.2,142.73 157.21,-152.1 -152.4,155.69 139.99,-29.96 -138.61,35.8 126.5,67.04 z"
       inkscape:connector-curvature="0" />
    <path
       id="path3180"
       sodipodi:nodetypes="ccccccccccccccc"
       style="fill:#0000ff"
       d="m 335.66,596.32 19.48,-104.12 -100.03,45.86 97.37,-50.85 -99.49,-45.84 101.93,40.72 -24.04,-103.02 29.74,101.63 52.11,-68.12 -47.44,71.5 112.39,4.96 -112.26,0.64 56.12,69.76 -60.64,-66.14 -25.24,103.02 z"
       inkscape:connector-curvature="0" />
    <path
       id="path3184"
       style="fill:#ffff00"
       d="m 290.81,573.11 -22.47,-13.53 -3.68,25.16 1.34,-25.48 -19,-4.57 19.37,2 -13.56,-25.34 15.9,25.66 22.1,16.1 z"
       sodipodi:nodetypes="cccccccccc"
       inkscape:transform-center-y="-40.876453"
       inkscape:transform-center-x="-82.384082"
       inkscape:connector-curvature="0" />
    <path
       id="path3193"
       style="fill:#ffff00"
       d="m 336.43,646.13 -23.96,-11.47 -0.29,28.45 -2.07,-28.44 -19.35,-2.08 19.37,-0.82 -16.74,-25.95 19.1,25.94 23.94,14.37 z"
       inkscape:transform-center-x="9.3120221"
       inkscape:transform-center-y="-21.391083"
       sodipodi:nodetypes="cccccccccc"
       inkscape:connector-curvature="0" />
    <path
       id="path3195"
       sodipodi:nodetypes="cccccccccc"
       style="fill:#ffff00"
       d="m 240.26,419.51 12.42,-25.86 -32.92,0.6 32.83,-3.11 1.73,-20.66 1.63,20.59 29.43,-18.65 -29.34,21.16 -15.78,25.93 z"
       inkscape:connector-curvature="0" />
    <path
       id="path3197"
       sodipodi:nodetypes="cccccccccc"
       style="fill:#ffff00"
       d="m 462.04,435.46 32.87,24.8 9.33,-42.48 -5.75,43.22 28.79,9.28 -29.73,-4.94 17.36,44.16 -20.95,-44.9 -31.92,-29.14 z"
       inkscape:connector-curvature="0" />
    <path
       id="path3206"
       sodipodi:nodetypes="ccccccccccc"
       style="fill:#ffff00"
       d="m 467.69,544.09 13.24,14.83 27.22,-37.84 -25.53,38.82 19.45,-4.52 -19.97,6.88 0.08,23.02 -2.09,-22.55 -19.7,38.79 18.98,-40.85 -11.68,-16.58 z"
       inkscape:connector-curvature="0" />
    <path
       id="path3212"
       sodipodi:nodetypes="ccccccccccccccccccccccccccccccc"
       style="fill:#008000"
       d="m 360.34,507.55 2.86,43.07 -9.45,-42.07 -15.15,40.67 8.75,-42.41 -26.4,39.54 21.29,-43.7 -50.25,25.64 47.32,-31.51 -43.73,-1.25 43.48,-5.31 -39.24,-18.71 41.73,12.59 -28.74,-25.02 33.52,20.39 -20.58,-55.95 26.83,53.63 6.28,-42.81 0.36,43.19 23.35,-36.76 -17.47,39.77 49.65,-27.68 -45.54,32.81 43.13,-7.75 -41.51,14.11 64.38,24.29 -65.52,-17.81 58.47,50.68 -62.18,-45.19 24.51,33.46 -30.15,-29.91 z"
       inkscape:connector-curvature="0" />
    <path
       id="path3182"
       style="fill:#ff0000"
       sodipodi:type="star"
       sodipodi:sides="11"
       sodipodi:r1="13.510427"
       sodipodi:r2="50.03862"
       sodipodi:arg1="0.77902882"
       sodipodi:arg2="1.0646282"
       transform="matrix(0.88318,0.69759,-0.70002,0.88626,456.55,346.95)"
       inkscape:randomized="0.009"
       sodipodi:cy="157.22189"
       sodipodi:cx="10.817405"
       inkscape:rounded="0"
       inkscape:flatsided="false"
       d="M 20.284106,166.6439 34.973928,200.97 13.994117,170.14094 7.3584052,207.06048 5.8238533,169.91422 l -24.4956683,27.67544 18.34576046,-31.99795 -35.71243246,9.85407 33.2430839,-17.5001 -35.1825089,-10.74876 36.5860606,3.93435 -23.4438166,-28.84606 29.2249782,22.79636 -4.78578837,-36.95031 12.33727317,35.43766 16.232942,-33.71257 -9.244579,36.59399 31.678072,-19.0241 -27.520496,24.59728 37.847434,1.43338 -36.713173,6.3886 30.551574,21.36505 z" />
    <path
       id="path3208"
       sodipodi:nodetypes="ccccccccccc"
       style="fill:#ffff00"
       inkscape:transform-center-x="58.392352"
       d="m 373.21,456.01 -10.05,-12.33 -22.21,24.88 20.91,-25.79 -15.36,1.23 15.82,-2.9 0.46,-16.94 1.12,16.8 16.34,-26.39 -15.81,27.99 8.78,13.45 z"
       inkscape:connector-curvature="0" />
    <path
       id="path3222"
       sodipodi:nodetypes="ccccccccccc"
       style="fill:#ffff00"
       d="m 402.5,492 2.09,10.99 26.51,-8.7 -25.95,9.69 11.63,4.1 -12.66,-3.18 -7.44,10.57 6.24,-10.99 -22.9,11.51 23.19,-12.69 -0.71,-11.3 z"
       inkscape:connector-curvature="0" />
    <path
       id="path3218"
       style="fill:#0000ff"
       d="m 316.05,404.5 13.61,-22.41 -25.14,-3.78 25.47,1.44 4.64,-18.99 -2.07,19.36 25.39,-13.46 -25.72,15.81 -16.18,22.03 z"
       inkscape:transform-center-x="1.6356751"
       inkscape:transform-center-y="2.4715633"
       sodipodi:nodetypes="cccccccccc"
       inkscape:connector-curvature="0" />
    <path
       id="path3199"
       style="fill:#ffff00"
       d="m 330.9,529.83 -20.31,-10.38 -1.83,29.54 -0.23,-29.38 -16.8,-0.93 16.98,-2.09 -13.2,-25.85 15.26,25.7 20.13,13.39 z"
       sodipodi:nodetypes="cccccccccc"
       inkscape:transform-center-y="1.8432121"
       inkscape:transform-center-x="-0.53760352"
       inkscape:connector-curvature="0" />
    <path
       id="path3266"
       style="fill:#ffff00"
       sodipodi:type="star"
       sodipodi:sides="15"
       sodipodi:r1="49.832932"
       sodipodi:r2="13.953221"
       sodipodi:arg1="0.19250163"
       sodipodi:arg2="0.40194115"
       transform="translate(394.14,381.37)"
       inkscape:randomized="0.053"
       sodipodi:cy="113.49182"
       sodipodi:cx="-38.135132"
       inkscape:rounded="0"
       inkscape:flatsided="false"
       d="m 11.362681,122.59797 -36.628113,-5.22768 28.7786317,23.85967 -32.3829437,-17.90178 18.315698,31.00476 -23.494674,-25.71305 0.789839,33.0728 -8.544322,-35.44075 -11.725013,37.17105 9.99538,-38.17088 -28.124209,27.89373 23.445845,-29.35552 -36.493154,12.93064 33.719925,-17.54448 -38.480889,-4.47096 38.846673,-2.50889 -31.127068,-18.586867 30.723124,14.291207 -19.364819,-28.392304 26.972383,19.843689 -8.932604,-31.993628 10.010567,30.328376 10.973208,-35.798814 -4.30555,36.764319 23.804986,-29.511698 -19.189573,36.06297 33.7012719,-20.832851 -27.9209079,24.643811 37.116701,-4.55261 -36.214901,8.25028 z" />
    <path
       id="path3268"
       style="fill:#ffff00"
       sodipodi:type="star"
       sodipodi:sides="9"
       sodipodi:r1="37.411888"
       sodipodi:r2="3.36707"
       sodipodi:arg1="0.16697017"
       sodipodi:arg2="0.51603602"
       transform="matrix(0.70481,0,0,0.74933,222.49,388.73)"
       inkscape:randomized="0.096"
       sodipodi:cy="122.19657"
       sodipodi:cx="-18.238541"
       inkscape:rounded="0"
       inkscape:flatsided="false"
       d="m 19.523599,126.51639 -32.395319,-5.71832 16.4863277,29.21031 -22.5400367,-23.37381 -1.185647,33.39912 0.06438,-38.19734 -19.443823,32.676 16.569113,-29.69649 -29.169411,2.23817 30.746956,-8.5533 -27.311447,-16.7098 25.045011,15.82438 -8.213356,-33.648773 12.710702,34.281123 10.0746833,-32.100868 -4.5265753,34.661068 26.788612,-16.11862 -27.70664,15.84155 z" />
    <path
       id="path3270"
       style="fill:#0000ff"
       sodipodi:type="star"
       sodipodi:sides="9"
       sodipodi:r1="30.699106"
       sodipodi:r2="2.7629197"
       sodipodi:arg1="0.60298276"
       sodipodi:arg2="0.95204861"
       transform="matrix(0.56481,0,0,0.66794,265.15,323.85)"
       inkscape:randomized="0.096"
       sodipodi:cy="178.57025"
       sodipodi:cx="-16.995005"
       inkscape:rounded="0"
       inkscape:flatsided="false"
       d="m 9.9818149,195.61328 -23.1336349,-14.3226 3.3121741,26.00394 -8.6047351,-28.62573 -10.858987,30.11506 11.170581,-30.77004 -25.846403,13.24185 26.181463,-10.73272 -26.027174,-8.84677 24.519562,4.3601 -15.796379,-24.1277 18.001488,22.56757 2.060608,-25.61171 -1.736988,28.08493 23.4222062,-22.4448 -18.9891692,22.14679 28.370577,-0.37015 -32.802292,1.05844 z" />
    <path
       id="path3272"
       style="fill:#ff0000"
       sodipodi:type="star"
       sodipodi:sides="9"
       inkscape:transform-center-x="-198.55139"
       sodipodi:r1="32.241489"
       sodipodi:r2="2.9017341"
       inkscape:transform-center-y="-138.44711"
       sodipodi:arg1="2.3561945"
       sodipodi:arg2="2.7052603"
       transform="matrix(-0.22247,-0.70675,0.63763,-0.20072,323.94,597.73)"
       inkscape:randomized="0.096"
       sodipodi:cy="99.398399"
       sodipodi:cx="47.254402"
       inkscape:rounded="0"
       inkscape:flatsided="false"
       d="M 22.598118,123.21465 47.143086,98.76394 16.559504,103.39519 45.501465,95.642419 19.794935,81.990348 44.711169,97.296663 40.266566,70.337913 49.711197,96.011433 62.106034,68.57161 49.611002,99.858796 73.840992,84.354371 49.942758,101.84207 l 30.61775,6.57552 -28.234889,-6.44609 12.106689,25.70938 -17.812658,-24.21056 -3.456307,27.61726 5.172166,-27.9745 z" />
    <path
       id="path3274"
       style="fill:#ff0000"
       sodipodi:type="star"
       sodipodi:sides="9"
       sodipodi:r1="16.934235"
       sodipodi:r2="1.5240811"
       sodipodi:arg1="-0.37596095"
       sodipodi:arg2="-0.026895103"
       transform="translate(315.38,220.12)"
       inkscape:randomized="0.096"
       sodipodi:cy="260.64368"
       sodipodi:cx="-13.678906"
       inkscape:rounded="0"
       inkscape:flatsided="false"
       d="m 2.6278955,254.42168 -15.3072215,5.29244 15.6804068,7.03654 -16.5162578,-5.44795 9.8658621,13.33267 -9.8422121,-12.31524 -1.445799,15.18146 0.959166,-15.09105 -10.888686,9.09604 11.358577,-11.41939 -18.331628,0.6858 17.757884,-0.13777 -14.11568,-9.88549 14.936492,7.02628 -5.380261,-14.08026 5.392263,14.42409 6.2253342,-12.54551 -5.3246812,13.98148 z" />
    <path
       id="path3276"
       style="fill:#ff0000"
       sodipodi:type="star"
       sodipodi:sides="5"
       inkscape:transform-center-x="-4.7998629"
       sodipodi:r1="21.17667"
       sodipodi:r2="1.9059004"
       inkscape:transform-center-y="-0.41553134"
       sodipodi:arg1="2.4393357"
       sodipodi:arg2="3.0676542"
       transform="matrix(0.98437,-0.17614,0.17614,0.98437,-28.63,424.17)"
       inkscape:randomized="0.096"
       sodipodi:cy="116.80791"
       sodipodi:cx="419.07193"
       inkscape:rounded="0"
       inkscape:flatsided="false"
       d="m 403.50677,131.86571 13.77947,-16.7216 -14.6255,-8.88793 14.44043,9.14517 7.28418,-20.237116 -5.73193,21.019876 21.18947,-1.04168 -19.57584,1.68908 6.7001,18.80375 -10.04383,-17.69354 z" />
    <path
       id="path3278"
       style="fill:#008000"
       sodipodi:type="star"
       sodipodi:sides="5"
       sodipodi:r1="15.537301"
       sodipodi:r2="1.3983572"
       sodipodi:arg1="0.80426385"
       sodipodi:arg2="1.4325824"
       transform="matrix(0.95838,-0.28548,0.28548,0.95838,-151.03,373.66)"
       inkscape:randomized="0.096"
       sodipodi:cy="299.60785"
       sodipodi:cx="404.14951"
       inkscape:rounded="0"
       inkscape:flatsided="false"
       d="m 414.47451,312.16348 -9.94017,-9.93915 -7.67143,12.23571 7.23042,-14.64141 -14.11481,-1.80211 14.4543,0.17318 -2.72635,-15.03683 3.82462,14.67928 12.9662,-5.09296 -13.13666,6.81977 z" />
    <path
       id="path3280"
       style="fill:#0000ff"
       sodipodi:type="star"
       sodipodi:sides="5"
       sodipodi:r1="20.05143"
       sodipodi:r2="1.8046287"
       sodipodi:arg1="0.51914611"
       sodipodi:arg2="1.1474646"
       transform="translate(302.11,325.82)"
       inkscape:randomized="0.096"
       sodipodi:cy="267.27588"
       sodipodi:cx="34.819035"
       inkscape:rounded="0"
       inkscape:flatsided="false"
       d="m 53.482333,275.63269 -17.768277,-6.35361 -4.584973,16.00817 2.589097,-15.04082 -16.972548,0.47535 16.242141,-2.71239 -6.28632,-19.6434 7.699113,17.64912 15.91416,-10.44216 -13.069297,9.91657 z" />
    <path
       id="path3282"
       style="fill:#008000"
       sodipodi:type="star"
       sodipodi:sides="5"
       sodipodi:r1="14.069014"
       sodipodi:r2="1.2662113"
       sodipodi:arg1="0.78539816"
       sodipodi:arg2="1.4137167"
       transform="translate(7.3966,315.46)"
       inkscape:randomized="0.096"
       sodipodi:cy="200.12489"
       sodipodi:cx="426.53317"
       inkscape:rounded="0"
       inkscape:flatsided="false"
       d="m 437.41681,210.07408 -11.05444,-9.03358 -6.42323,12.9413 4.18518,-14.25982 -12.26349,-0.49404 14.90361,-0.70276 -1.55954,-12.81233 2.61513,12.14718 11.77024,-4.57252 -11.83552,7.64216 z" />
    <path
       id="path3284"
       style="fill:#008000"
       sodipodi:type="star"
       sodipodi:sides="5"
       sodipodi:r1="19.775322"
       sodipodi:r2="1.779779"
       sodipodi:arg1="0.99442111"
       sodipodi:arg2="1.6227396"
       transform="translate(77.864,329.55)"
       inkscape:randomized="0.096"
       sodipodi:cy="93.595222"
       sodipodi:cx="248.29288"
       inkscape:rounded="0"
       inkscape:flatsided="false"
       d="m 260.81293,111.20733 -10.8428,-16.001356 -15.47791,13.663446 11.13357,-13.724504 -14.3934,-8.367676 17.1603,6.722635 0.99522,-18.347753 0.081,17.188138 16.88134,-2.420288 -17.26108,4.709107 z" />
  </g>
  <metadata
     id="metadata28">
    <rdf:RDF>
      <cc:Work>
        <dc:format>image/svg+xml</dc:format>
        <dc:type
           rdf:resource="http://purl.org/dc/dcmitype/StillImage" />
        <cc:license
           rdf:resource="http://creativecommons.org/licenses/publicdomain/" />
        <dc:publisher>
          <cc:Agent
             rdf:about="http://openclipart.org/">
            <dc:title>Openclipart</dc:title>
          </cc:Agent>
        </dc:publisher>
        <dc:title></dc:title>
        <dc:date>2009-10-24T14:28:37</dc:date>
        <dc:description />
        <dc:source>https://openclipart.org/detail/27914/multicolored-sparkle-by-newnhamm</dc:source>
        <dc:creator>
          <cc:Agent>
            <dc:title>newnhamm</dc:title>
          </cc:Agent>
        </dc:creator>
        <dc:subject>
          <rdf:Bag>
            <rdf:li>cleanup</rdf:li>
            <rdf:li>colour</rdf:li>
            <rdf:li>creative</rdf:li>
            <rdf:li>fun</rdf:li>
            <rdf:li>spark</rdf:li>
            <rdf:li>sparkle</rdf:li>
            <rdf:li>sparkler</rdf:li>
          </rdf:Bag>
        </dc:subject>
      </cc:Work>
      <cc:License
         rdf:about="http://creativecommons.org/licenses/publicdomain/">
        <cc:permits
           rdf:resource="http://creativecommons.org/ns#Reproduction" />
        <cc:permits
           rdf:resource="http://creativecommons.org/ns#Distribution" />
        <cc:permits
           rdf:resource="http://creativecommons.org/ns#DerivativeWorks" />
      </cc:License>
    </rdf:RDF>
  </metadata>
</svg>
